<svg width="51" height="35" viewBox="0 0 51 35" fill="none" xmlns="http://www.w3.org/2000/svg">
<path d="M40.9479 4.88415H36.1367V1.64197C36.1367 0.832983 35.4809 0.177124 34.6719 0.177124H1.72266C0.913672 0.177124 0.257812 0.832983 0.257812 1.64197V28.3151C0.257812 29.1241 0.913672 29.78 1.72266 29.78H6.71094C8.30508 36.0183 17.1088 36.0141 18.7005 29.78H31.815C33.4092 36.0183 42.2129 36.0141 43.8046 29.78H48.793C49.602 29.78 50.2578 29.1241 50.2578 28.3151V14.194C50.2578 9.06052 46.0813 4.88415 40.9479 4.88415ZM12.7058 31.5573C10.918 31.5573 9.46357 30.1028 9.46357 28.3151C9.6416 24.0139 15.7706 24.0152 15.948 28.3151C15.948 30.1028 14.4935 31.5573 12.7058 31.5573ZM33.207 24.2092C32.5444 24.9511 32.0587 25.8535 31.815 26.8502H18.7005C17.1063 20.6119 8.30264 20.6161 6.71094 26.8502H3.1875V3.10671H33.207V24.2092ZM37.8099 31.5573C36.0221 31.5573 34.5677 30.1028 34.5677 28.3151C34.7457 24.0139 40.8747 24.0152 41.0521 28.3151C41.0521 30.1028 39.5977 31.5573 37.8099 31.5573ZM47.3281 26.8503H43.8063C43.1469 24.1518 40.7086 22.1432 37.81 22.1432H36.1367V7.81384H39.4831V17.3321C39.4831 18.1411 40.139 18.7969 40.9479 18.7969H47.3281V26.8503ZM47.3281 15.8672H42.4128V7.98347C45.2271 8.64724 47.3281 11.18 47.3281 14.194V15.8672Z" fill="#244D4D"/>
</svg>
